<?xml version="1.0" encoding="utf-8"?>
<!-- Generator: Adobe Illustrator 16.0.4, SVG Export Plug-In . SVG Version: 6.00 Build 0)  -->
<!DOCTYPE svg PUBLIC "-//W3C//DTD SVG 1.1//EN" "http://www.w3.org/Graphics/SVG/1.1/DTD/svg11.dtd">
<svg version="1.1" id="artwork" xmlns="http://www.w3.org/2000/svg" xmlns:xlink="http://www.w3.org/1999/xlink" x="0px" y="0px"
	 width="1190.551px" height="841.89px" viewBox="0 0 1190.551 841.89" enable-background="new 0 0 1190.551 841.89"
	 xml:space="preserve">
<g>
	<g>
		<path fill="#000020" d="M219.086,722.686c-9.061,0-17.009-1.439-23.838-4.314c-6.833-2.875-12.586-6.902-17.258-12.082
			c-4.675-5.176-8.164-11.324-10.463-18.443c-2.302-7.119-3.452-14.992-3.452-23.623c0-8.629,1.257-16.537,3.775-23.73
			c2.515-7.189,6.074-13.408,10.679-18.658c4.601-5.25,10.247-9.348,16.935-12.299c6.688-2.945,14.13-4.422,22.328-4.422
			c5.033,0,10.065,0.432,15.101,1.295c5.033,0.863,9.85,2.232,14.454,4.1l-4.53,17.041c-3.021-1.436-6.509-2.588-10.463-3.451
			c-3.957-0.863-8.164-1.295-12.62-1.295c-11.218,0-19.813,3.527-25.779,10.572c-5.97,7.049-8.953,17.332-8.953,30.848
			c0,6.041,0.681,11.58,2.05,16.611c1.365,5.037,3.522,9.35,6.472,12.945c2.946,3.596,6.721,6.361,11.326,8.305
			c4.601,1.941,10.21,2.912,16.827,2.912c5.319,0,10.139-0.502,14.454-1.51c4.314-1.006,7.692-2.084,10.139-3.236l2.804,16.826
			c-1.153,0.723-2.804,1.402-4.962,2.051c-2.157,0.646-4.604,1.219-7.334,1.725c-2.734,0.502-5.646,0.934-8.737,1.295
			C224.944,722.504,221.961,722.686,219.086,722.686z"/>
		<path fill="#000020" d="M298.343,722.254c-12.371-0.289-21.141-2.945-26.319-7.982c-5.178-5.031-7.766-12.869-7.766-23.514
			V556.143l20.062-3.451v134.83c0,3.311,0.287,6.041,0.863,8.197c0.573,2.158,1.51,3.885,2.805,5.178
			c1.294,1.295,3.02,2.266,5.177,2.914c2.158,0.646,4.817,1.186,7.982,1.617L298.343,722.254z"/>
		<path fill="#000020" d="M415.288,664.008c0,8.92-1.294,16.971-3.883,24.162c-2.589,7.193-6.223,13.375-10.895,18.553
			c-4.675,5.176-10.247,9.168-16.72,11.971c-6.471,2.807-13.52,4.207-21.141,4.207c-7.624,0-14.669-1.4-21.141-4.207
			c-6.472-2.803-12.047-6.795-16.72-11.971c-4.675-5.178-8.305-11.359-10.894-18.553c-2.588-7.191-3.883-15.242-3.883-24.162
			c0-8.771,1.294-16.789,3.883-24.055c2.589-7.26,6.219-13.482,10.894-18.66c4.673-5.178,10.248-9.168,16.72-11.973
			c6.472-2.805,13.517-4.207,21.141-4.207c7.621,0,14.67,1.402,21.141,4.207c6.473,2.805,12.045,6.795,16.72,11.973
			c4.672,5.178,8.306,11.4,10.895,18.66C413.994,647.219,415.288,655.236,415.288,664.008z M394.362,664.008
			c0-12.654-2.841-22.686-8.521-30.094c-5.684-7.406-13.412-11.111-23.191-11.111c-9.781,0-17.512,3.705-23.19,11.111
			c-5.683,7.408-8.521,17.439-8.521,30.094c0,12.656,2.838,22.688,8.521,30.094c5.679,7.41,13.409,11.109,23.19,11.109
			c9.779,0,17.508-3.699,23.191-11.109C391.521,686.695,394.362,676.664,394.362,664.008z"/>
		<path fill="#000020" d="M527.186,716.861c-4.604,1.152-10.678,2.373-18.229,3.666c-7.551,1.295-16.288,1.943-26.211,1.943
			c-8.629,0-15.893-1.262-21.789-3.777c-5.898-2.514-10.645-6.072-14.238-10.678c-3.596-4.602-6.184-10.031-7.766-16.287
			c-1.584-6.256-2.373-13.193-2.373-20.818v-62.992h20.062v58.678c0,13.666,2.158,23.443,6.472,29.34
			c4.315,5.898,11.575,8.844,21.789,8.844c2.157,0,4.386-0.07,6.688-0.215c2.299-0.141,4.455-0.324,6.471-0.539
			c2.012-0.215,3.846-0.432,5.501-0.648c1.652-0.215,2.839-0.465,3.56-0.754v-94.705h20.062V716.861z"/>
		<path fill="#000020" d="M628.963,556.143l20.064-3.451v164.17c-4.605,1.293-10.502,2.588-17.691,3.883
			c-7.193,1.295-15.461,1.941-24.809,1.941c-8.629,0-16.396-1.369-23.298-4.098c-6.903-2.732-12.802-6.615-17.69-11.65
			c-4.891-5.033-8.666-11.182-11.326-18.445c-2.662-7.26-3.99-15.424-3.99-24.484c0-8.629,1.113-16.537,3.344-23.73
			c2.229-7.189,5.502-13.375,9.816-18.553c4.313-5.178,9.6-9.201,15.855-12.08c6.256-2.875,13.409-4.314,21.465-4.314
			c6.471,0,12.188,0.863,17.15,2.588c4.961,1.727,8.662,3.381,11.109,4.963V556.143z M628.963,631.648
			c-2.447-2.014-5.969-3.953-10.57-5.824c-4.604-1.867-9.637-2.805-15.102-2.805c-5.754,0-10.678,1.045-14.776,3.127
			c-4.1,2.088-7.443,4.963-10.033,8.631c-2.588,3.666-4.459,8.018-5.607,13.051c-1.153,5.035-1.727,10.43-1.727,16.18
			c0,13.088,3.236,23.189,9.708,30.311c6.472,7.119,15.101,10.678,25.888,10.678c5.463,0,10.031-0.25,13.697-0.756
			c3.668-0.502,6.506-1.041,8.521-1.617V631.648z"/>
		<path fill="#000020" d="M671.375,646.102h53.283v18.77h-53.283V646.102z"/>
		<path fill="#000020" d="M755.745,587.641c-3.598,0-6.654-1.188-9.168-3.561c-2.52-2.373-3.777-5.57-3.777-9.6
			c0-4.025,1.258-7.227,3.777-9.6c2.514-2.373,5.57-3.559,9.168-3.559c3.592,0,6.65,1.186,9.168,3.559
			c2.516,2.373,3.775,5.574,3.775,9.6c0,4.029-1.26,7.227-3.775,9.6C762.395,586.453,759.336,587.641,755.745,587.641z
			 M765.883,720.098h-20.062v-112.18h20.062V720.098z"/>
		<path fill="#000020" d="M794.401,611.154c4.602-1.148,10.713-2.373,18.336-3.668c7.621-1.293,16.396-1.941,26.32-1.941
			c8.914,0,16.32,1.262,22.219,3.775c5.896,2.518,10.605,6.041,14.131,10.57c3.523,4.531,6.002,9.961,7.441,16.287
			c1.438,6.332,2.158,13.305,2.158,20.926v62.994h-20.062v-58.68c0-6.902-0.469-12.797-1.402-17.689
			c-0.938-4.887-2.48-8.844-4.639-11.863c-2.156-3.021-5.035-5.213-8.629-6.58c-3.596-1.365-8.055-2.051-13.375-2.051
			c-2.156,0-4.389,0.074-6.688,0.217c-2.303,0.145-4.496,0.322-6.58,0.539c-2.086,0.215-3.957,0.469-5.609,0.756
			c-1.654,0.289-2.84,0.504-3.559,0.646v94.705h-20.062V611.154z"/>
		<path fill="#000020" d="M922.088,587.641c-3.598,0-6.654-1.188-9.168-3.561c-2.52-2.373-3.777-5.57-3.777-9.6
			c0-4.025,1.258-7.227,3.777-9.6c2.514-2.373,5.57-3.559,9.168-3.559c3.592,0,6.65,1.186,9.168,3.559
			c2.516,2.373,3.775,5.574,3.775,9.6c0,4.029-1.26,7.227-3.775,9.6C928.739,586.453,925.68,587.641,922.088,587.641z
			 M932.227,720.098h-20.062v-112.18h20.062V720.098z"/>
		<path fill="#000020" d="M979.663,607.918h42.5v16.828h-42.5v51.773c0,5.609,0.432,10.248,1.295,13.914
			c0.863,3.668,2.158,6.547,3.883,8.631c1.727,2.086,3.883,3.559,6.473,4.422c2.588,0.863,5.607,1.293,9.061,1.293
			c6.041,0,10.895-0.68,14.561-2.049c3.668-1.365,6.221-2.336,7.658-2.912l3.885,16.611c-2.016,1.008-5.539,2.264-10.57,3.775
			c-5.037,1.51-10.787,2.266-17.26,2.266c-7.625,0-13.914-0.971-18.877-2.914c-4.961-1.941-8.951-4.854-11.971-8.736
			c-3.021-3.883-5.145-8.662-6.365-14.346c-1.223-5.68-1.834-12.26-1.834-19.738V576.639l20.062-3.453V607.918z"/>
	</g>
	<g>
		<path fill="#E95420" d="M595.275,150.171c-93.932,0-170.078,76.146-170.078,170.079c0,53.984,25.157,102.088,64.381,133.245
			v-37.423c0-8.807,7.137-15.943,15.943-15.943s15.947,7.137,15.947,15.943v57.45c3.478,1.678,7.024,3.233,10.629,4.677v-62.127
			c0-8.807,7.139-15.943,15.943-15.943c8.807,0,15.945,7.137,15.945,15.943v71.374c3.508,0.652,7.053,1.198,10.633,1.631v-73.005
			c0-8.807,7.139-15.943,15.945-15.943c8.805,0,15.944,7.137,15.944,15.943v73.878c3.572-0.232,7.119-0.565,10.629-1.016V352.287
			c0-8.801,7.137-15.943,15.943-15.943s15.943,7.143,15.943,15.943v129.365c67.59-22.497,116.33-86.255,116.33-161.402
			C765.354,226.317,689.208,150.171,595.275,150.171z"/>
		<path fill="#FFFFFF" d="M696.856,320.25H569.303c-21.133,0-38.27-17.125-38.27-38.27c0-20.339,15.871-36.965,35.898-38.192
			c-8.953-17.953-2.489-40.012,15.128-50.188c17.611-10.165,39.949-4.739,51.019,11.997c11.076-16.736,33.416-22.162,51.025-11.994
			c17.621,10.173,24.08,32.226,15.119,50.185c20.037,1.228,35.906,17.854,35.906,38.192
			C735.129,303.125,717.993,320.25,696.856,320.25z"/>
		<g>
			<path fill="#E95420" d="M633.014,271.05c4.074,0,7.375-3.302,7.375-7.371v-34.547c0-4.07-3.301-7.37-7.375-7.37
				c-4.068,0-7.369,3.3-7.369,7.37v34.547C625.645,267.748,628.946,271.05,633.014,271.05z"/>
			<path fill="#E95420" d="M650.254,238.483c-3.043,2.7-3.316,7.36-0.615,10.405c7.746,8.728,7.348,22.036-0.916,30.302
				c-4.174,4.176-9.729,6.476-15.639,6.476c-5.9,0-11.457-2.303-15.637-6.479c-8.291-8.291-8.67-21.625-0.863-30.356
				c2.715-3.034,2.455-7.695-0.578-10.409c-3.035-2.712-7.699-2.453-10.41,0.582c-13.02,14.556-12.391,36.787,1.43,50.607
				c6.961,6.963,16.211,10.797,26.059,10.797c0,0,0,0,0.002,0c9.846,0,19.098-3.831,26.064-10.793
				c13.77-13.776,14.432-35.96,1.512-50.514C657.961,236.055,653.299,235.777,650.254,238.483z"/>
			<path fill="#E95420" d="M632.788,344.26c-4.4,0-7.969,3.568-7.969,7.969c0,4.406,3.568,7.975,7.969,7.975
				c4.406,0,7.975-3.568,7.975-7.975C640.762,347.828,637.194,344.26,632.788,344.26z"/>
		</g>
	</g>
</g>
</svg>
